<svg width="20" height="6" viewBox="0 0 20 6" fill="none" xmlns="http://www.w3.org/2000/svg">
<path d="M14.6667 3.00002C14.6667 4.28335 15.7167 5.33335 17 5.33335C18.2834 5.33335 19.3334 4.28335 19.3334 3.00002C19.3334 1.71669 18.2834 0.666687 17 0.666687C15.7167 0.666687 14.6667 1.71669 14.6667 3.00002ZM12.3334 3.00002C12.3334 1.71669 11.2834 0.666687 10 0.666687C8.71671 0.666687 7.66671 1.71669 7.66671 3.00002C7.66671 4.28335 8.71671 5.33335 10 5.33335C11.2834 5.33335 12.3334 4.28335 12.3334 3.00002ZM5.33337 3.00002C5.33337 1.71669 4.28337 0.666686 3.00004 0.666686C1.71671 0.666686 0.666708 1.71669 0.666708 3.00002C0.666708 4.28335 1.71671 5.33335 3.00004 5.33335C4.28337 5.33335 5.33337 4.28335 5.33337 3.00002Z" fill="#212529"/>
</svg>
